<?xml version="1.0" encoding="UTF-8"?>
<svg xmlns="http://www.w3.org/2000/svg" viewBox="0 0 64 64" width="64" height="64" role="img" aria-label="Ear favicon">
  <defs>
    <linearGradient id="g" x1="0" y1="0" x2="1" y2="1">
      <stop offset="0%" stop-color="#6C63FF" />
      <stop offset="100%" stop-color="#8A76FF" />
    </linearGradient>
  </defs>
  <rect width="64" height="64" rx="12" fill="#fff" />
  <rect width="64" height="64" rx="12" fill="url(#g)" opacity="0.06" />
  <!-- ear shape -->
  <path d="M40.5 47c-7 1-12.5-1.5-15-6.5-2.6-5 0-12 2-14.5 3-3.5 5-4 7-6 2-2 2.5-5 1-7-1.5-2-4-3-7-2.5-3 .5-6 2.5-8 5C17 26 16 33 18 39c2 6 8 12 15 12 6.5 0 9-2 11.5-4z" fill="#fff" opacity="0.95"/>
  <!-- inner ear -->
  <path d="M36 33c-1.3 2.6-4 4-6 3s-2.5-4-1-6 4-3 6-2 2.2 3 1 5z" fill="#fff" opacity="0.65"/>
  <!-- outer ring accent -->
  <circle cx="46" cy="18" r="3.5" fill="#6C63FF" opacity="0.12" />
</svg>
